{"asset":{"version":"2.0","generator":"THREE.JS GLTFExporter"},"scenes":[{"nodes":[0],"name":"AuxScene"}],"scene":0,"nodes":[{"mesh":0}],"meshes":[{"primitives":[{"mode":4,"attributes":{"POSITION":0,"NORMAL":1},"material":0}]}],"materials":[{"pbrMetallicRoughness":{"baseColorFactor":[0.5019607843137255,0.5019607843137255,0.5019607843137255,1],"metallicFactor":0,"roughnessFactor":1}}],"accessors":[{"bufferView":0,"componentType":5126,"count":84,"max":[3.5234580039978027,0.27000001072883606,4.300000190734863],"min":[-3.676542043685913,0.27000001072883606,-3.0999999046325684],"type":"VEC3"},{"bufferView":1,"componentType":5126,"count":84,"max":[0,1,0],"min":[0,1,0],"type":"VEC3"}],"bufferViews":[{"buffer":0,"byteOffset":0,"byteLength":1008,"byteStride":12,"target":34962},{"buffer":0,"byteOffset":1008,"byteLength":1008,"byteStride":12,"target":34962}],"buffers":[{"byteLength":2016,"uri":"data:application/octet-stream;base64,"}]}